# xmcd
#
# Track frame offsets:
#	150
#	27985
#	40487
#	52507
#	65617
#	77380
#	95187
#	111325
#	141650
#	158962
#	183925
#	204015
#	224152
#
# Disc length: 3130 seconds
#
# Revision: 4
# Processed by: cddbd v1.5PL3 Copyright (c) Steve Scherf et al.
# Submitted via: CDex 1.50Beta5
#
DISCID=bb0c380d
DTITLE=なぎらけんいち - 中毒(ベストアルバム)
DYEAR=1900
DGENRE=JPOP
TTITLE0=悲惨な戦い
TTITLE1=アーパー・サーファー・ギャル
TTITLE2=なぎらのマイムマイム
TTITLE3=あたしの青春(はる)
TTITLE4=健康な奴キライ!!
TTITLE5=ソーリートレイン
TTITLE6=上のヒト音頭
TTITLE7=YASUOSAN
TTITLE8=あの日からI LOVE YOU
TTITLE9=男は馬之助
TTITLE10=下町(まち)
TTITLE11=ラブユー東京スポーツ
TTITLE12=いっぽんでもニンジン
EXTD=
EXTT0=
EXTT1=
EXTT2=
EXTT3=
EXTT4=
EXTT5=
EXTT6=
EXTT7=
EXTT8=
EXTT9=
EXTT10=
EXTT11=
EXTT12=
PLAYORDER=
